<svg viewBox="0 0 1024 1024" xmlns="http://www.w3.org/2000/svg"><path d="M409.6 102.4h204.8q307.2 0 307.2 307.2v204.8q0 307.2-307.2 307.2H409.6q-307.2 0-307.2-307.2V409.6q0-307.2 307.2-307.2z" fill="#50CC79"/><path d="M465.92 245.76a25.6 25.6 0 0125.6 25.6v97.28h47.13l.394-.522 75.653-96.83a25.6 25.6 0 1140.346 31.519l-51.436 65.833h72.233c50.898 0 92.16 41.262 92.16 92.16v174.08c0 50.898-41.262 92.16-92.16 92.16H348.16c-50.898 0-92.16-41.262-92.16-92.16V460.8c0-50.898 41.262-92.16 92.16-92.16h92.16v-97.28a25.6 25.6 0 0125.6-25.6zm-30.162 234.465a20.48 20.48 0 00-29.276 5.033l-95.826 143.36-.579.922a20.48 20.48 0 006.226 27.484l.922.584a20.48 20.48 0 0027.484-6.226l83.17-124.442 105.4 87.834.87.686a20.48 20.48 0 0026.337-1.567l48.564-46.1 68.034 85.007.727.855a20.48 20.48 0 0031.253-26.455l-81.961-102.4-.717-.85a20.48 20.48 0 00-29.368-1.203l-51.523 48.896-108.877-90.737zM540.16 430.08a28.16 28.16 0 100 56.32 28.16 28.16 0 000-56.32z" fill="#FFF" fill-opacity=".8"/></svg>