<svg width="126" height="32" viewBox="0 0 158 40" xmlns="http://www.w3.org/2000/svg" xmlns:xlink="http://www.w3.org/1999/xlink"><defs><path id="a" d="M0 0h158v40H0z"></path><path id="c" d="M0 0h28.802v31.111H0z"></path><path id="e" d="M0 0h6.547v24.305H0z"></path><path id="a" d="M0 0h158v40H0z"></path><path id="c" d="M0 0h28.802v31.111H0z"></path><path id="e" d="M0 0h6.547v24.305H0z"></path></defs><g fill="none" fill-rule="evenodd"><mask id="b" fill="#FFFFFF"><use xlink:href="#a" fill="#FFFFFF"></use></mask><g mask="url(#b)" fill="none"><g transform="translate(10.766 4.444)" fill="none"><mask id="d" fill="#FFFFFF"><use xlink:href="#c" fill="#FFFFFF"></use></mask><path d="M.442 23.418c.759 5.214 1.669 9.135 7.603 7.184 5.688-1.87 11.165-5.177 15.973-8.932 1.72-1.503 4.724-3.614 4.784-6.114-.06-2.5-3.064-4.612-4.784-6.114C19.21 5.686 13.733 2.379 8.045.509 2.11-1.44 1.2 2.48.442 7.693.066 10.275 0 12.941 0 15.556s.066 5.28.442 7.862" fill="#0098FF" mask="url(#d)"></path></g><g transform="translate(5.486 7.847)" fill="none"><mask id="f" fill="#FFFFFF"><use xlink:href="#e" fill="#FFFFFF"></use></mask><path d="M.547 5.267c.651-3.451 1.628-5.955 6-5.097-.369 1.187-.603 2.599-.825 4.12-.376 2.583-.442 5.248-.442 7.863s.066 5.28.442 7.862c.222 1.521.456 2.933.825 4.12-4.372.86-5.349-1.644-6-5.096L.5 18.794l-.089-.499C.062 16.278 0 14.196 0 12.153S.062 8.028.412 6.01l.09-.498.045-.245z" fill="#FF8800" mask="url(#f)"></path></g><path d="M12.032 8.017c.304.06.625.135.962.228 5.31 1.461 10.421 4.044 14.909 6.978 1.605 1.175 4.41 2.824 4.465 4.777-.056 1.953-2.86 3.603-4.465 4.777-4.488 2.934-9.6 5.517-14.909 6.978-.337.093-.657.168-.961.228-.369-1.187-.603-2.599-.824-4.121-.377-2.582-.443-5.247-.443-7.862s.066-5.28.443-7.862c.22-1.512.452-2.916.817-4.099l.006-.022z" fill="#43E700"></path><path d="M15.165 15.043s-.318.536-.318 4.967c0 4.44.318 4.95.318 4.95.11.55.337.723.918.585 0 0 .973-.156 4.884-2.173 3.91-2.027 4.565-2.778 4.565-2.778.418-.432.527-.717 0-1.175 0 0-1.073-1.009-4.565-2.843-3.456-1.816-4.884-2.119-4.884-2.119-.481-.138-.79.018-.918.586M68.968 17.082c.08.398.756 1.61 1.012 1.848h-7.619c.687-.532 1.39-1.325 1.805-1.849h4.802zm.795 4.824l-.347 1.717h-8.262l.638-2.873h7.139c1.156 0 .89.846.832 1.156zm5.518-13.8h-2.202c-.982 1.279-2.86 3.282-4.024 3.784H67.65c.296-.484 1.909-3.784 1.909-3.784h-2.274l-1.876 3.692c-1.34-.913-1.92-2.456-2.397-3.692h-2.42c.311.907.865 2.78 1.932 3.704h-3.351l-.429 1.84h5.478c-.357.559-.669 1.056-1.148 1.585h-5.49l-.429 1.771h4.382c-1.414 1.479-3.356 2.633-4.872 2.633l-.442 1.983s2.35-.436 3.515-1.025l-.676 3.129c-.214.936.031 1.633.962 1.633l9.19.001c.739 0 .935.524.759 1.305l-.531 2.045c-.271.992-.733 1.523-1.555 1.523h-8.21l-.568 1.68h8.43c1.906 0 3.273-.173 3.788-2.34l1.017-4.612c.156-.683-.447-1.242-1.056-1.238l.577-2.986c.472.367 1.068.701 1.64.875l.676-1.421c-1.215-.584-2.634-1.88-3.012-3.175h3.515l.445-1.84h-9.426l.962-1.556h7.71l.418-1.799h-2.696c1.23-1.083 2.258-2.38 3.184-3.715zm41.495 21.702c0-.043.005-.09.015-.145l1.742-9.204h-.84l1.751-8.79h-2.065l-1.753 9.05c-.058.16-.419 1.175-1.127 2.463-.774 1.405-1.952 3.115-3.55 4.347-1.516 1.162-2.73 1.825-3.559 2.194a8.268 8.268 0 0 1-.944.359c-.212.067-.304.08-.304.08l-.192.034-.534 1.895.477-.073c.031-.008 5.929-.93 9.587-6.336l-.831 4.05a3.985 3.985 0 0 0-.084.756c-.002.45.121.857.437 1.124.314.266.741.362 1.266.363h6.65l.054-.245.33-1.496h-5.845c-.554-.034-.664-.136-.68-.426zm-8.975-8.219l.09.087 2.093-.021-.348-.482s-.294-.407-.654-1.031c-.358-.623-.777-1.457-1.013-2.275l-.069-.232-.648.027 2.52-2.865c-.01-.017 1.041-.929 1.082-1.91a.963.963 0 0 0-.495-.848c-.33-.194-.783-.284-1.43-.284h-6.853l-.333 1.732h6.636l-7.585 8.292-.828 3.451 4.496-4.71-2.526 11.466h2.053l.05-.241 2.602-12.044c.583 1.334 1.131 1.863 1.16 1.888zm-29.22 8.4l2.636-12.704c.214-1.052-.409-2.134-1.63-2.13h-3.035l-.414 1.79h2.37c.527 0 .646.342.544.77l-2.59 12.365c-.305 1.462.512 1.896 2.054 1.896h3.483l.482-1.605h-3.544c-.25 0-.411-.123-.355-.382zm17.137-.272l3.707-17.587c.25-1.672.712-3.581-2.765-3.581H86.136l-.404 1.746h9.577c2.098 0 2.139.776 1.825 2.308l-3.712 17.542c-.19 1.068.07 1.796 1.85 1.796.11 0 3.87-.043 4.236-.012l.448-1.734-3.79-.003c-.329 0-.548-.056-.448-.475zm-.756-11.28h-5.169l1.582-7.153h-2.063l-1.587 7.177h-5.31l-.446 1.798h5.319l-2.511 11.694h2.127l2.524-11.76h5.092l.442-1.756zm43.26 1.823l.369-.493h-2.45l-2.29 3.055 1.121-5.565 4.11.002.377-1.67h-4.343l.518-2.542h4.187l.052-.245.317-1.496-4.19-.001.69-3.387h-1.998l-1.576 7.67h-2.215l1.222-5.939h-1.955l-1.22 5.94h-3.035l-.381 1.67h7.446l-1.656 7.878h.747c-1.627 2.14-3.383 3.362-4.764 4.06a10.61 10.61 0 0 1-1.817.725c-.443.124-.686.156-.686.156l-.221.031-.349 1.788.382-.005c.058.004 5.372-.109 9.999-6.693 1.448-2.06 3.606-4.935 3.61-4.94zM68.79 27.083H56.395l-.42 1.465h12.394l.421-1.465zm-13.03-16.74l-.975 4.578H51.87l.998-4.678c.33-.319 1.354-.451 1.647-.451.269 0 1.346.11 1.246.552zM53.283 21.86h-2.91l1.093-5.19h2.908l-1.091 5.19zM55.41 7.94c-.483 0-1.54.064-2.024.325-.015-.077.015-.2.028-.3H51.38l-4.673 21.391c-.12.601-.303.74-.472.74h-.979l-.418 1.838h1.91c.427 0 1.48-.3 1.834-1.924l1.335-6.226h2.973l-1.208 5.65c-.068.35-.128.661-.364.661H49.99l-.39 1.84h1.709c.388 0 1.78.166 2.195-1.828l4.34-20.07c.362-1.665-1.256-2.097-2.434-2.097zm75.625 10.932l.083-.377h-1.992l-.064.225c-.535 1.873-1.52 3.437-2.373 4.528-.853 1.091-1.562 1.697-1.561 1.7l-.085.073-.433 2.68.579-.356c.026-.02 4.533-2.802 5.846-8.473zm-22.973-8.03l.632-2.934h-1.85l-.685 3.177h1.85l.053-.243zm4.063 12.983l.054-.243 2.727-12.395c.596-.606 1.223-.883 1.944-.887h4.419c.053-.002.088-.002.124-.002.43-.002.709.087.86.208.15.121.229.277.233.58a2.06 2.06 0 0 1-.07.508l-2.697 12.231h2.034l2.703-12.395c.068-.272.107-.537.11-.79.007-.637-.286-1.192-.82-1.515-.53-.326-1.256-.462-2.184-.464-.077 0-.155 0-.236.002h-4.107c-.145-.003-.288-.003-.422-.003-.617.007-1.152.015-1.555.198l-.023-.244h-1.835l-3.287 15.211h2.028zm36.051 6.122c-.738-.663-2.385-2.403-3.528-5.58l-.075-.203h-.288l1.688-7.7h-2.032l-1.672 7.46c-.03.097-.188.58-.592 1.271a9.917 9.917 0 0 1-2.414 2.745 10.73 10.73 0 0 1-3.119 1.74c-.819.284-1.318.325-1.318.33l-.21.022-.548 1.927.431-.02c.033-.001 5.707-.27 8.818-5.592 2.176 4.616 4.285 5.513 4.362 5.54l.258.106.846-1.574-.225-.156c0-.002-.135-.096-.382-.316zm-67.259-16.72l1.6-.839s-.882-1.099-1.808-2.593c-.82-1.411-.98-1.857-.98-1.857l-2.046-.005s.755 1.553 1.128 2.186c.372.635 2.106 3.108 2.106 3.108zm59.747-4.466l-.33 1.633h5.423c-.752 1.507-1.583 2.733-1.963 3.02-.403.135-.838.203-1.23.38l-.017-.284h-1.838l-2.753 12.61h1.932l.051-.245 2.134-9.9c.347-.38.678-.612.96-.71.26-.12 1.065-.21 1.747-.205l.107.002h3.129c.642.045.653.192.696.547 0 .092-.013.198-.037.311l-2.11 10.245h1.935l2.056-9.84c.11-.402.172-.78.173-1.12.004-.59-.193-1.088-.588-1.407-.393-.32-.926-.447-1.55-.448h-2.39c.173-.234.35-.52.546-.848.348-.6.72-1.334 1.087-2.108h4.929l.048-.249.278-1.384h-12.425z" fill="#FFFFFF"></path></g></g></svg>